<?xml version="1.0" standalone="no"?><!DOCTYPE svg PUBLIC "-//W3C//DTD SVG 1.1//EN" "http://www.w3.org/Graphics/SVG/1.1/DTD/svg11.dtd"><svg t="1547606177238" class="icon" style="" viewBox="0 0 1024 1024" version="1.1" xmlns="http://www.w3.org/2000/svg" p-id="12997" xmlns:xlink="http://www.w3.org/1999/xlink" width="200" height="200"><defs><style type="text/css">@font-face { font-family: uc-nexus-iconfont; src: url("chrome-extension://pogijhnlcfmcppgimcaccdkmbedjkmhi/res/font_9qmmi8b8jsxxbt9.woff") format("woff"), url("chrome-extension://pogijhnlcfmcppgimcaccdkmbedjkmhi/res/font_9qmmi8b8jsxxbt9.ttf") format("truetype"); }
</style></defs><path d="M531.0976 883.072c-4.864-2.4064-9.344-3.7376-19.0976-3.7376-9.7536 0-14.2336 1.3312-19.0976 3.7376l3.1488-1.4592c8.6528-3.7888 41.8304-21.8112 76.2624-43.0848 54.912-33.9456 109.5936-73.3184 159.872-117.1712C868.1728 602.752 947.2 474.1376 947.2 342.2976 947.2 224.5888 849.5104 128 729.6 128c-62.3104 0-120.32 25.1648-160.6912 69.7088l-55.9104 61.6704-56.9856-60.672C414.1056 154.0608 355.0208 128 294.4 128c-119.9104 0-217.6 96.5888-217.6 214.2976 0 131.84 79.0272 260.4544 215.0144 379.0336 50.2784 43.8528 104.96 83.2256 159.872 117.1712 34.432 21.2992 67.6096 39.296 76.2624 43.0848L531.0976 883.072zM0 342.2976C0 181.9904 132.2752 51.2 294.4 51.2c83.2 0 162.1248 35.8656 217.6 94.9248C567.4752 84.9408 646.4 51.2 729.6 51.2 891.7248 51.2 1024 181.9904 1024 342.2976c0 360.704-477.8752 601.1904-497.0752 609.6128-4.2752 2.0992-10.6752 4.224-14.9248 4.224-4.2752 0-10.6752-2.0992-14.9248-4.224C477.8752 943.488 0 703.0016 0 342.2976z" p-id="12998" fill="#ffffff"></path></svg>