<?xml version="1.0" standalone="no"?><!DOCTYPE svg PUBLIC "-//W3C//DTD SVG 1.1//EN" "http://www.w3.org/Graphics/SVG/1.1/DTD/svg11.dtd"><svg t="1547793519724" class="icon" style="" viewBox="0 0 1110 1024" version="1.1" xmlns="http://www.w3.org/2000/svg" p-id="4007" xmlns:xlink="http://www.w3.org/1999/xlink" width="216.796875" height="200"><defs><style type="text/css"></style></defs><path d="M247.296 293.376l237.056 358.4V290.304c0-23.552 5.12-40.96 15.36-52.736 10.24-11.776 23.552-17.408 40.96-17.408 17.92 0 31.744 5.632 41.984 17.408 10.24 11.776 15.36 29.184 15.36 52.736v478.208c0 53.248-22.016 79.872-66.56 79.872-11.264 0-20.992-1.536-29.696-4.608-8.704-3.072-17.408-8.192-25.088-15.36-7.68-6.656-14.848-14.848-21.504-24.064-6.656-9.216-13.312-18.944-19.968-28.672L203.776 421.888V778.24c0 23.04-5.632 40.96-16.384 52.736-10.752 11.776-24.576 17.92-41.472 17.92-17.408 0-31.232-6.144-41.984-17.92-10.752-11.776-15.872-29.696-15.872-52.736V308.736c0-19.968 2.048-35.328 6.656-47.104 5.12-12.288 13.824-22.528 26.112-30.72 12.288-7.68 25.088-11.776 39.424-11.776 11.264 0 20.48 2.048 28.672 5.632 7.68 3.584 14.848 8.192 20.992 14.336 6.144 6.144 11.776 13.824 18.432 23.552 6.144 10.24 12.288 20.48 18.944 30.72zM859.136 258.048c40.96 0 76.288 8.192 105.472 25.088 29.184 16.896 51.712 40.448 67.072 71.168s22.528 66.56 22.528 108.032c0 30.72-4.096 58.368-12.288 83.456s-20.48 46.592-37.376 65.024c-16.384 18.432-36.864 32.256-60.928 41.984-24.064 9.728-51.712 14.336-82.944 14.336-30.72 0-58.88-5.12-82.944-14.848-24.576-10.24-45.056-24.064-61.44-42.496-16.384-18.432-28.672-39.936-37.376-65.536-8.192-25.6-12.8-53.248-12.8-82.944 0-30.208 4.608-58.368 13.312-83.968 8.704-25.6 21.504-47.104 37.888-65.024s36.864-31.232 60.416-40.96c24.064-8.704 51.2-13.312 81.408-13.312z m114.176 203.264c0-29.184-4.608-54.272-13.824-75.264-9.216-20.992-22.528-37.376-39.936-48.128-17.408-10.752-37.376-16.384-59.904-16.384-15.872 0-30.72 3.072-44.544 9.216-13.824 6.144-25.088 14.848-35.328 26.112-9.728 11.776-17.408 26.112-23.04 44.032s-8.704 37.888-8.704 60.416 3.072 43.008 8.704 60.928c5.632 18.432 13.824 33.28 24.064 45.056 10.24 11.776 22.016 20.992 35.84 26.624 13.312 6.144 28.16 8.704 44.032 8.704 20.48 0 39.424-5.12 56.32-15.36 17.408-10.24 30.72-26.112 40.96-47.616 10.24-20.48 15.36-47.104 15.36-78.336zM1029.12 811.52h-324.608c-26.112 0-47.616-21.504-47.616-47.616 0-26.112 21.504-47.616 47.616-47.616H1029.12c26.112 0 47.616 21.504 47.616 47.616 0 26.112-20.992 47.616-47.616 47.616z" p-id="4008" fill="#707070"></path></svg>