<?xml version="1.0" standalone="no"?><!DOCTYPE svg PUBLIC "-//W3C//DTD SVG 1.1//EN" "http://www.w3.org/Graphics/SVG/1.1/DTD/svg11.dtd"><svg t="1547793491506" class="icon" style="" viewBox="0 0 1024 1024" version="1.1" xmlns="http://www.w3.org/2000/svg" p-id="3053" xmlns:xlink="http://www.w3.org/1999/xlink" width="200" height="200"><defs><style type="text/css"></style></defs><path d="M162.56 350.592l66.6176 147.0976L297.152 350.592l71.0976 0L259.1104 554.9184l0 117.6128L190.7392 672.5312 190.7392 554.0416 81.6 350.592 162.56 350.592z" p-id="3054" fill="#d81e06"></path><path d="M414.7392 349.2288l216.4032 0 0 52.7808L484.0192 402.0096l0 76.9088 137.7152 0 0 52.7552L484.0192 531.6736l0 87.2 152.0576 0 0 53.664L414.7392 672.5376 414.7392 349.2288z" p-id="3055" fill="#d81e06"></path><path d="M750.0928 569.2352c0 3.8848 0.2816 9.2416 0.9088 16.1024 0.5696 6.8608 2.6624 13.632 6.2336 20.352 3.5712 6.688 9.3568 12.4992 17.2352 17.4336 7.8784 4.9024 19.2768 7.3728 34.1888 7.3728 18.8224 0 33.7344-4.0832 44.7296-12.3008 11.0528-8.192 16.5568-19.136 16.5568-32.8576 0-7.1424-1.248-12.9536-3.8016-17.4336s-6.3488-8.192-11.3984-11.2c-5.1008-2.9504-11.5072-5.5872-19.2192-7.8208-7.7696-2.208-16.7232-4.5376-26.8736-6.9184-19.3344-4.7616-36.3968-9.92-51.1936-15.424-14.7392-5.5296-27.0976-12.0768-37.0816-19.6736-10.0352-7.5968-17.632-16.4672-22.848-26.6176-5.216-10.1184-7.8208-22.1952-7.8208-36.2304 0-13.408 2.496-26.1376 7.424-38.2144 4.8768-12.0768 12.4736-22.6496 22.7904-31.7504 10.2592-9.1008 23.5264-16.384 39.8016-21.9136 16.2176-5.5296 35.5456-8.2752 57.888-8.2752 8.3328 0 17.0112 0.512 25.9648 1.5616 8.9024 1.0496 17.6896 3.0592 26.3616 6.0352 8.6144 2.976 16.8384 6.944 24.608 11.8464 7.712 4.9344 14.5728 11.1104 20.5824 18.5664 4.4224 5.952 7.936 11.936 10.4896 17.888 2.496 5.952 4.3648 11.6224 5.5552 16.9792 1.1904 5.3568 1.8688 10.2336 2.0416 14.5408 0.1728 4.3072 0.224 7.8208 0.224 10.5152l-66.6176 0c-0.3392-2.6944-0.9088-6.8032-1.8112-12.3008-0.9088-5.5296-3.1168-11.0272-6.688-16.5568-3.5712-5.4976-8.7872-10.2912-15.648-14.3168-6.8608-4.0256-16.2688-6.0352-28.1792-6.0352-16.1024 0-28.9728 3.968-38.6688 11.8464-9.696 7.9104-14.5728 18.5664-14.5728 31.9744 0 7.456 1.5296 13.5808 4.48 18.3424 3.008 4.7616 7.3728 8.7872 13.2096 12.0768 5.7856 3.2896 13.0944 6.1248 21.8816 8.5056s19.0464 5.0752 30.6688 8.0512c14.0032 3.2576 27.6096 6.9184 40.8768 10.944 13.2672 4.0256 25.1136 9.3824 35.5456 16.1024 10.432 6.688 18.8224 15.1936 25.056 25.4848 6.2336 10.2912 9.4144 23.328 9.4144 39.1168 0 14.6304-3.008 28.2624-8.96 40.9344s-14.7392 23.7568-26.3616 33.3056c-11.6224 9.5232-26.0224 17.0624-43.2 22.5664-17.12 5.5296-36.8512 8.2752-59.2448 8.2752-20.5248 0-37.9264-2.0096-52.0448-6.0352-14.176-4.0256-25.9648-9.2416-35.3216-15.648-9.4144-6.4064-16.5568-13.6896-21.4848-21.9136-4.9344-8.192-8.672-16.384-11.168-24.576-2.5536-8.224-4.0256-16.0448-4.48-23.5008-0.4544-7.424-0.6784-13.8624-0.6784-19.2192L750.0928 569.2224z" p-id="3056" fill="#d81e06"></path></svg>