<?xml version="1.0" standalone="no"?><!DOCTYPE svg PUBLIC "-//W3C//DTD SVG 1.1//EN" "http://www.w3.org/Graphics/SVG/1.1/DTD/svg11.dtd"><svg t="1547629999828" class="icon" style="" viewBox="0 0 1024 1024" version="1.1" xmlns="http://www.w3.org/2000/svg" p-id="6510" xmlns:xlink="http://www.w3.org/1999/xlink" width="200" height="200"><defs><style type="text/css">@font-face { font-family: uc-nexus-iconfont; src: url("chrome-extension://pogijhnlcfmcppgimcaccdkmbedjkmhi/res/font_9qmmi8b8jsxxbt9.woff") format("woff"), url("chrome-extension://pogijhnlcfmcppgimcaccdkmbedjkmhi/res/font_9qmmi8b8jsxxbt9.ttf") format("truetype"); }
</style></defs><path d="M639.584794 408.445506c-22.222117 0-43.347251 7.759731-60.918442 22.148439-3.155876 2.583848-7.770987 2.550079-10.876721-0.094144-17.605983-14.992459-38.926568-23.083741-61.476144-23.083741-47.329958 0-95.502098 37.896098-96.01068 110.328781-0.402159 59.789735 46.39261 87.520309 77.370135 105.870236 4.337795 2.572592 9.408277 5.586229 14.068413 8.574283 19.825534 12.768815 35.677571 29.620621 42.038442 39.921221 9.337669 14.990413 28.472472 21.158902 46.261627 12.307304 4.611018-2.294252 8.515954-5.937223 11.06808-10.411118 5.542226-9.714246 23.494087-28.811186 43.762713-42.959417 5.012154-3.474125 10.446933-6.79066 16.968463-10.79895 29.478382-18.027585 74.024947-45.281299 73.608461-103.037725-0.514723-71.403237-48.613184-108.765169-95.864347-108.765169z m-9.094123 161.637354c-6.506181 3.978614-13.240559 8.103562-19.418258 12.412704-10.920724 7.618515-22.00313 16.804734-31.917944 26.380834-3.325745 3.211135-8.609075 3.237741-11.949146 0.040932-10.258645-9.818623-21.74014-18.936281-33.450857-26.486234-5.217838-3.361561-10.965749-6.780427-15.924691-9.701966-34.236755-20.290115-48.52518-32.354895-48.358381-54.57292 0.24457-35.431977 19.277042-51.577702 36.843117-51.577702 15.914458 0 30.634718 11.976776 39.376822 32.03153 0 0 15.758915 24.838711 27.195386 24.838712 11.441587 0 27.097148-24.912389 27.097148-24.91239 8.388041-19.373233 23.201421-30.943756 39.622416-30.943756 16.757662 0 36.431747 13.102413 36.700877 50.008974 0.151449 21.943778-14.422478 33.267685-45.816489 52.481282z" p-id="6511" fill="#d4237a"></path><path d="M702.480262 262.538415h-33.842782v-17.698081c43.675732-3.00238 78.31874-39.401382 78.31874-83.827197v-11.603269c0-46.3834-37.737486-84.120886-84.120886-84.120886H361.16262c-46.3834 0-84.120886 37.737486-84.120886 84.120886v11.603269c0 44.424792 34.643008 80.824817 78.31874 83.827197v17.698081h-33.839713c-61.314461 0-111.195521 49.881061-111.195522 111.193475v473.78156c0 61.311391 49.881061 111.195521 111.195522 111.195521h380.959501c61.311391 0 111.193475-49.884131 111.193475-111.195521V373.73189c0-61.311391-49.881061-111.193475-111.193475-111.193475z m-367.42423-101.524255v-11.603269c0-14.395872 11.710716-26.106588 26.106588-26.106587h301.673737c14.395872 0 26.106588 11.710716 26.106588 26.106587v11.603269c0 14.395872-11.710716 26.106588-26.106588 26.106588H361.16262c-14.395872 0-26.106588-11.710716-26.106588-26.106588z m78.319763 84.119863h197.24841v17.404392H413.375795v-17.404392z m342.283644 602.379427c0 29.323862-23.857361 53.181223-53.179177 53.181223H321.521784c-29.324886 0-53.181223-23.857361-53.181223-53.181223V373.73189c0-29.321816 23.857361-53.179177 53.181223-53.179177h380.959502c29.321816 0 53.179177 23.857361 53.179176 53.179177v473.78156z" p-id="6512" fill="#d4237a"></path></svg>