<?xml version="1.0" standalone="no"?><!DOCTYPE svg PUBLIC "-//W3C//DTD SVG 1.1//EN" "http://www.w3.org/Graphics/SVG/1.1/DTD/svg11.dtd"><svg t="1547693047603" class="icon" style="" viewBox="0 0 1024 1024" version="1.1" xmlns="http://www.w3.org/2000/svg" p-id="1996" xmlns:xlink="http://www.w3.org/1999/xlink" width="200" height="200"><defs><style type="text/css"></style></defs><path d="M874.183111 249.400889C600.263111 278.840889 352.682667 515.015111 304.64 779.377778a44.885333 44.885333 0 0 1-28.871111 34.304 44.288 44.288 0 0 1-43.889778-8.106667 45.226667 45.226667 0 0 1-14.961778-42.382222C269.824 471.893333 529.578667 214.300444 828.387556 164.864l-136.760889-81.038222a45.226667 45.226667 0 0 1-15.872-61.610667 44.373333 44.373333 0 0 1 61.041777-16.014222l259.299556 153.685333a45.283556 45.283556 0 0 1 11.776 67.498667l-198.257778 242.090667a44.373333 44.373333 0 0 1-76.145778-12.970667 45.312 45.312 0 0 1 7.424-44.373333l133.290667-162.730667z m17.464889 402.147555c0-24.860444 19.968-44.999111 44.572444-44.999111 24.632889 0 44.600889 20.138667 44.600889 44.999111v185.344c0 100.721778-71.509333 184.945778-163.470222 184.945778H163.470222C71.509333 1021.838222 0 937.642667 0 836.835556V276.992c0-100.778667 71.509333-184.945778 163.470222-184.945778h255.658667c24.632889 0 44.572444 20.138667 44.572444 44.999111 0 24.832-19.939556 44.970667-44.572444 44.970667H163.470222c-39.367111 0-74.296889 41.102222-74.296889 94.976V836.835556c0 53.873778 34.929778 95.004444 74.296889 95.004444h653.880889c39.338667 0 74.296889-41.130667 74.296889-95.004444v-185.287112z" p-id="1997" fill="#8a8a8a"></path></svg>