<?xml version="1.0" standalone="no"?><!DOCTYPE svg PUBLIC "-//W3C//DTD SVG 1.1//EN" "http://www.w3.org/Graphics/SVG/1.1/DTD/svg11.dtd"><svg t="1547534735552" class="icon" style="" viewBox="0 0 1024 1024" version="1.1" xmlns="http://www.w3.org/2000/svg" p-id="2798" xmlns:xlink="http://www.w3.org/1999/xlink" width="200" height="200"><defs><style type="text/css"></style></defs><path d="M902.3434168395388 570.9358682015401h-331.7799727632157v331.8328909365038c0 32.33699770347935-26.226446372843796 58.53748421772893-58.56444253242294 58.53748421772893-32.33699770347935 0-58.56344407632318-26.200486514249597-58.56344407632318-58.53748421772893v-331.8328909365038h-331.7819696754152c-32.36395601817335 0-58.56344407632318-26.200486514249597-58.56344407632318-58.53748421772893 0-32.32501623028203 26.20248342644915-58.53748421772893 58.56344407632318-58.53748421772893h331.7799727632157v-331.8328909365038c0-32.32501623028203 26.226446372843796-58.53748421772893 58.56344407632318-58.53748421772893 32.33799615957912 0 58.56444253242294 26.213466443546704 58.56444253242294 58.53748421772893v331.8338893926036h331.7799727632157c32.36395601817335 0 58.56444253242294 26.21146953134715 58.56444253242294 58.535487305529394-0.0009984560997770514 32.33699770347935-26.200486514249597 58.535487305529394-58.56444253242294 58.535487305529394z" fill="#ffffff" p-id="2799"></path></svg>