<?xml version="1.0" standalone="no"?><!DOCTYPE svg PUBLIC "-//W3C//DTD SVG 1.1//EN" "http://www.w3.org/Graphics/SVG/1.1/DTD/svg11.dtd"><svg t="1547540464569" class="icon" style="" viewBox="0 0 1024 1024" version="1.1" xmlns="http://www.w3.org/2000/svg" p-id="5750" xmlns:xlink="http://www.w3.org/1999/xlink" width="200" height="200"><defs><style type="text/css">@font-face { font-family: uc-nexus-iconfont; src: url("chrome-extension://pogijhnlcfmcppgimcaccdkmbedjkmhi/res/font_9qmmi8b8jsxxbt9.woff") format("woff"), url("chrome-extension://pogijhnlcfmcppgimcaccdkmbedjkmhi/res/font_9qmmi8b8jsxxbt9.ttf") format("truetype"); }
</style></defs><path d="M85.333333 0h853.333334c46.933333 0 85.333333 38.4 85.333333 85.333333v853.333334c0 46.933333-38.4 85.333333-85.333333 85.333333h-853.333334c-46.933333 0-85.333333-38.4-85.333333-85.333333V85.333333c0-46.933333 38.4-85.333333 85.333333-85.333333z" fill="#DC4950" p-id="5751"></path><path d="M512 789.333333c-17.066667 0-34.133333-12.8-34.133333-34.133333V256c0-17.066667 12.8-34.133333 34.133333-34.133333s34.133333 12.8 34.133333 34.133333v503.466667c0 17.066667-17.066667 29.866667-34.133333 29.866666z" fill="#FFFFFF" p-id="5752"></path><path d="M763.733333 537.6h-503.466666c-17.066667 0-34.133333-12.8-34.133334-34.133333s12.8-34.133333 34.133334-34.133334h503.466666c17.066667 0 34.133333 12.8 34.133334 34.133334s-17.066667 34.133333-34.133334 34.133333z" fill="#FFFFFF" p-id="5753"></path></svg>