<?xml version="1.0" standalone="no"?><!DOCTYPE svg PUBLIC "-//W3C//DTD SVG 1.1//EN" "http://www.w3.org/Graphics/SVG/1.1/DTD/svg11.dtd"><svg t="1547629659829" class="icon" style="" viewBox="0 0 1024 1024" version="1.1" xmlns="http://www.w3.org/2000/svg" p-id="2996" xmlns:xlink="http://www.w3.org/1999/xlink" width="200" height="200"><defs><style type="text/css">@font-face { font-family: uc-nexus-iconfont; src: url("chrome-extension://pogijhnlcfmcppgimcaccdkmbedjkmhi/res/font_9qmmi8b8jsxxbt9.woff") format("woff"), url("chrome-extension://pogijhnlcfmcppgimcaccdkmbedjkmhi/res/font_9qmmi8b8jsxxbt9.ttf") format("truetype"); }
</style></defs><path d="M801.28 907.264h-578.56c-105.984 0-171.52-82.944-147.456-174.592l66.56-257.536c15.36-59.904 89.088-105.472 164.352-105.472h411.648c75.264 0 148.992 45.568 164.352 105.472l66.56 257.536c24.064 91.648-41.472 174.592-147.456 174.592z" fill="#FF52A1" p-id="2997"></path><path d="M196.608 532.48c-1.536 0-3.072 0-4.608-0.512-10.24-2.56-16.384-12.8-13.824-23.04 4.096-15.872 11.776-30.208 23.552-44.032 7.68-9.216 16.896-17.408 27.136-24.576 8.704-6.144 20.48-4.096 26.624 4.608 6.144 8.704 4.096 20.48-4.608 26.624-7.68 5.632-14.848 11.776-20.48 18.432-7.68 9.216-13.312 18.944-15.872 29.184-2.048 7.68-9.728 13.312-17.92 13.312zM283.136 453.12c-8.192 0-15.36-5.12-17.92-13.312-3.072-10.24 2.56-20.48 12.288-23.552 17.92-5.632 35.84-8.192 54.272-8.192 10.24 0 18.944 8.704 18.944 18.944s-8.704 18.944-18.944 18.944c-14.336 0-28.672 2.048-43.008 6.656-1.536 0.512-3.584 0.512-5.632 0.512z" fill="#6147B2" p-id="2998"></path><path d="M949.248 732.672l-66.56-257.536c-12.8-49.152-64.512-88.576-124.416-101.376 15.872 15.872 27.648 34.304 33.28 54.272l66.56 257.536c23.552 91.648-41.472 174.592-147.456 174.592h-578.56c-9.728 0-18.944-0.512-27.648-2.048 26.624 29.696 68.096 49.152 119.296 49.152h578.56c104.96 0 170.496-82.944 146.944-174.592z" fill="#EF2E8E" p-id="2999"></path><path d="M801.28 926.208h-578.56c-57.856 0-109.056-23.04-140.288-63.488-29.184-37.376-38.4-86.528-26.112-135.168l66.56-257.536c17.408-67.072 97.792-119.808 182.784-119.808h411.648c84.992 0 165.376 52.736 182.784 119.808l66.56 257.536c12.288 48.128 3.072 97.28-26.112 135.168-30.208 40.448-81.408 63.488-139.264 63.488z m-495.104-537.6c-67.584 0-133.12 40.96-146.432 91.136l-66.56 257.536c-9.728 37.376-3.072 73.728 18.944 102.4 24.064 31.232 64 48.64 110.08 48.64h578.56c46.08 0 86.016-17.92 110.08-48.64 22.016-28.672 28.672-65.024 18.944-102.4l-66.56-257.536c-12.8-50.176-78.848-91.136-146.432-91.136H306.176z" fill="#6147B2" p-id="3000"></path><path d="M570.368 796.672l-55.296 68.096-65.024-68.096V373.76h120.32z" fill="#6ED7FF" p-id="3001"></path><path d="M516.096 893.44l-84.992-88.576V354.816h158.208V803.84l-73.216 89.6z m-47.104-103.936l44.544 46.592 37.376-46.08V392.704h-81.92v396.8z" fill="#6147B2" p-id="3002"></path><path d="M522.752 807.424h-26.624c-16.384 0-29.696-13.312-29.696-29.696v-175.616c0-16.384 13.312-29.696 29.696-29.696h26.624c16.384 0 29.696 13.312 29.696 29.696v175.616c0.512 15.872-12.8 29.696-29.696 29.696z m-18.432-37.888h10.752v-159.232h-10.752v159.232z" fill="#6ED7FF" p-id="3003"></path><path d="M570.368 485.376c-4.608-0.512-8.704-1.024-13.312-1.024H463.36c-4.608 0-9.216 0.512-13.312 1.024-41.472 6.656-73.216 42.496-73.216 85.504v82.944c0 43.008 31.744 79.36 73.216 85.504v-54.784c-14.848-9.216-23.552-26.624-23.552-46.08v-52.224c0-18.432 9.216-34.816 23.552-44.544 8.704-6.144 19.456-9.728 30.72-9.728h58.368c11.264 0 22.016 3.584 30.72 9.728 14.336 9.728 23.552 26.112 23.552 44.544v52.224c0 18.432-9.216 34.816-23.552 44.544v56.832c41.472-6.656 73.216-42.496 73.216-85.504v-82.944c0.512-43.52-31.744-79.36-72.704-86.016z" fill="#FFB87D" p-id="3004"></path><path d="M551.424 761.856v-89.088l8.192-5.632c9.728-6.656 15.36-17.408 15.36-28.672v-52.224c0-11.776-5.632-22.528-15.36-29.184-6.144-4.096-12.8-6.144-19.968-6.144H480.768c-7.168 0-13.824 2.048-19.968 6.144-9.728 6.656-15.36 17.408-15.36 29.184v52.224c0 13.312 5.632 24.064 14.848 30.208l8.704 5.632v87.552l-22.016-3.584c-51.2-8.192-89.6-52.736-89.6-104.448v-82.944c0-51.712 38.4-96.256 89.6-104.448 5.632-1.024 11.264-1.536 16.384-1.536h93.184c5.12 0 10.24 0.512 16.384 1.536 51.2 8.192 89.6 52.736 89.6 104.448v82.944c0 51.712-38.4 96.256-89.6 104.448l-21.504 3.584zM463.36 503.296c-3.072 0-6.656 0.512-10.24 1.024-32.768 5.12-57.344 33.792-57.344 67.072v82.944c0 25.088 14.336 47.616 35.328 59.392v-19.456c-14.848-13.312-23.552-33.28-23.552-55.296v-52.224c0-24.064 11.776-46.592 31.744-60.416 12.288-8.704 26.624-12.8 41.472-12.8h58.368c14.848 0 29.184 4.608 41.472 12.8 19.968 13.824 31.744 36.352 31.744 60.416v52.224c0 20.48-8.704 39.936-23.552 53.248v21.504c20.992-11.776 35.328-34.304 35.328-59.392v-82.944c0-32.768-24.576-61.952-57.344-67.072-4.096-0.512-7.168-1.024-10.24-1.024H463.36z" fill="#6147B2" p-id="3005"></path><path d="M526.336 770.048h-33.28c-4.096 0-7.68-3.584-7.68-7.68v-181.76c0-4.096 3.584-7.68 7.68-7.68h33.28c4.096 0 7.68 3.584 7.68 7.68v181.76c0 4.096-3.584 7.68-7.68 7.68z" fill="#FF52A1" p-id="3006"></path><path d="M343.552 361.472c0-94.72 76.8-171.008 171.008-171.008s171.008 76.8 171.008 171.008v5.632h73.728v-5.632c0-135.168-109.568-244.736-244.736-244.736S269.824 226.304 269.824 361.472v5.632h73.728v-5.632z" fill="#FFB87D" p-id="3007"></path><path d="M778.24 386.048h-111.616l0.512-20.992v-3.584c0-83.968-68.096-152.064-152.064-152.064S362.496 277.504 362.496 361.472v4.096l0.512 20.48H251.392l-0.512-20.48v-4.096c0-145.408 118.272-263.68 263.68-263.68S778.24 216.064 778.24 361.472v24.576zM704.512 348.16h35.84c-7.168-118.272-105.472-212.48-225.792-212.48S296.448 229.888 289.28 348.16h35.84c6.656-98.816 89.6-176.64 189.952-176.64s182.784 77.824 189.44 176.64z" fill="#6147B2" p-id="3008"></path></svg>