<?xml version="1.0" standalone="no"?><!DOCTYPE svg PUBLIC "-//W3C//DTD SVG 1.1//EN" "http://www.w3.org/Graphics/SVG/1.1/DTD/svg11.dtd"><svg t="1547630073933" class="icon" style="" viewBox="0 0 1024 1024" version="1.1" xmlns="http://www.w3.org/2000/svg" p-id="8288" xmlns:xlink="http://www.w3.org/1999/xlink" width="200" height="200"><defs><style type="text/css">@font-face { font-family: uc-nexus-iconfont; src: url("chrome-extension://pogijhnlcfmcppgimcaccdkmbedjkmhi/res/font_9qmmi8b8jsxxbt9.woff") format("woff"), url("chrome-extension://pogijhnlcfmcppgimcaccdkmbedjkmhi/res/font_9qmmi8b8jsxxbt9.ttf") format("truetype"); }
</style></defs><path d="M296.96 174.592s93.184 87.552 325.632 48.64c202.24-33.792 295.936 90.112 295.936 90.112" fill="#FFFFFF" p-id="8289"></path><path d="M918.528 347.648c-10.24 0-20.992-4.608-27.648-13.824-3.072-4.096-84.992-106.496-262.656-76.8-246.784 40.96-350.72-53.76-355.328-57.344-13.824-12.8-14.848-34.816-1.536-48.64 12.8-13.824 34.816-14.848 48.64-2.048 2.048 1.536 88.576 74.752 296.96 39.936 220.16-36.864 324.608 97.28 329.216 102.912 11.264 15.36 8.704 36.864-6.656 48.64-6.656 5.12-13.824 7.168-20.992 7.168z" fill="#FBCFFF" p-id="8290"></path><path d="M402.944 953.856H125.44c-19.456 0-35.328-15.872-35.328-35.328v-231.424c0-13.312 10.752-24.576 24.576-24.576h299.008c13.312 0 24.576 10.752 24.576 24.576v231.424c0 19.456-15.872 35.328-35.328 35.328z" fill="#FF52A1" p-id="8291"></path><path d="M388.096 972.8H140.288c-37.888 0-69.12-31.232-69.12-69.12v-206.848c0-29.696 24.064-53.76 53.76-53.76h279.04c29.696 0 53.76 24.064 53.76 53.76v206.848c-0.512 37.888-31.744 69.12-69.632 69.12z m-263.168-291.328c-8.704 0-15.872 7.168-15.872 15.872v206.848c0 17.408 13.824 31.232 31.232 31.232h247.808c17.408 0 31.232-13.824 31.232-31.232v-206.848c0-8.704-7.168-15.872-15.872-15.872H124.928z" fill="#6147B2" p-id="8292"></path><path d="M764.416 952.32h-198.144c-16.896 0-30.208-13.312-30.208-30.208V467.968h258.56V921.6c0 16.896-13.824 30.72-30.208 30.72z" fill="#6ED7FF" p-id="8293"></path><path d="M751.616 971.264H578.56c-34.304 0-61.952-27.648-61.952-61.952V449.024h296.448v460.288c0.512 34.304-27.136 61.952-61.44 61.952z m-196.608-484.352v422.4c0 13.312 10.752 24.064 24.064 24.064h173.056c13.312 0 24.064-10.752 24.064-24.064V486.912h-221.184z" fill="#6147B2" p-id="8294"></path><path d="M536.064 453.632h258.56v131.584h-258.56z" fill="#FF52A1" p-id="8295"></path><path d="M813.568 604.16H517.12V434.688h296.448V604.16z m-258.56-37.888h220.672V472.576h-220.672v93.696z" fill="#6147B2" p-id="8296"></path><path d="M337.92 350.208H189.952V70.144h43.52c57.856 0 104.448 46.592 104.448 104.448v175.616z" fill="#FF83D3" p-id="8297"></path><path d="M356.864 369.152H171.008V51.2h18.944c92.16 0 166.912 74.752 166.912 166.912v151.04z m-147.968-37.888h110.08V218.112c0-64.512-48.128-118.272-110.08-127.488v240.64z" fill="#6147B2" p-id="8298"></path><path d="M381.44 655.36H146.944c-5.12 0-9.728-4.096-9.728-9.728V365.568c0-7.168 5.632-13.312 13.312-13.312h227.84c7.168 0 13.312 5.632 13.312 13.312v280.064c-0.512 5.12-5.12 9.728-10.24 9.728z" fill="#FFB87D" p-id="8299"></path><path d="M377.344 674.304H151.04c-17.92 0-32.768-14.848-32.768-32.768V370.688c0-20.48 16.896-37.376 37.376-37.376h217.088c20.48 0 37.376 16.896 37.376 37.376v270.848c0 17.92-14.848 32.768-32.768 32.768z m-221.184-37.888h216.064V370.688l-216.576 0.512 0.512 265.216z" fill="#6147B2" p-id="8300"></path><path d="M172.032 748.544V849.92" fill="#FF83D3" p-id="8301"></path><path d="M172.032 868.864c-10.24 0-18.944-8.704-18.944-18.944v-101.376c0-10.24 8.704-18.944 18.944-18.944s18.944 8.704 18.944 18.944V849.92c0 10.24-8.192 18.944-18.944 18.944z" fill="#6147B2" p-id="8302"></path><path d="M208.896 431.104v95.744" fill="#FF83D3" p-id="8303"></path><path d="M208.896 545.792c-10.24 0-18.944-8.704-18.944-18.944V431.104c0-10.24 8.704-18.944 18.944-18.944s18.944 8.704 18.944 18.944v95.744c0 10.752-8.704 18.944-18.944 18.944z" fill="#6147B2" p-id="8304"></path><path d="M604.672 698.88v107.008" fill="#FF83D3" p-id="8305"></path><path d="M604.672 824.832c-10.24 0-18.944-8.704-18.944-18.944v-107.008c0-10.24 8.704-18.944 18.944-18.944s18.944 8.704 18.944 18.944v107.008c0 10.24-8.192 18.944-18.944 18.944z" fill="#6147B2" p-id="8306"></path></svg>