<?xml version="1.0" standalone="no"?><!DOCTYPE svg PUBLIC "-//W3C//DTD SVG 1.1//EN" "http://www.w3.org/Graphics/SVG/1.1/DTD/svg11.dtd"><svg t="1547629930289" class="icon" style="" viewBox="0 0 1024 1024" version="1.1" xmlns="http://www.w3.org/2000/svg" p-id="5738" xmlns:xlink="http://www.w3.org/1999/xlink" width="200" height="200"><defs><style type="text/css">@font-face { font-family: uc-nexus-iconfont; src: url("chrome-extension://pogijhnlcfmcppgimcaccdkmbedjkmhi/res/font_9qmmi8b8jsxxbt9.woff") format("woff"), url("chrome-extension://pogijhnlcfmcppgimcaccdkmbedjkmhi/res/font_9qmmi8b8jsxxbt9.ttf") format("truetype"); }
</style></defs><path d="M599.272727 321.034343c-14.092929 0-25.470707-11.377778-25.470707-25.470707v-50.941414c0-35.038384-28.573737-63.612121-63.612121-63.612121s-63.612121 28.573737-63.612121 63.612121v50.941414c0 14.092929-11.377778 25.470707-25.470707 25.470707-35.038384 0-63.612121 28.573737-63.612122 63.612122v31.80606c0 10.60202 8.533333 19.135354 19.135354 19.135354H643.878788c10.60202 0 19.135354-8.533333 19.135353-19.135354v-31.80606c0-35.038384-28.573737-63.612121-63.741414-63.612122z" fill="#FFB655" p-id="5739"></path><path d="M643.878788 480.193939H376.50101c-10.60202 0-19.135354 8.533333-19.135353 19.135354v286.383838c0 31.547475 25.729293 57.276768 57.276767 57.276768h190.836364c31.547475 0 57.276768-25.729293 57.276768-57.276768V499.329293c0.258586-10.60202-8.274747-19.135354-18.876768-19.135354z" fill="#BEEBFA" p-id="5740"></path><path d="M650.214141 397.446465H370.165657c-31.547475 0-57.276768 25.729293-57.276768 57.276767v6.335354c0 31.547475 25.729293 57.276768 57.276768 57.276768h280.048484c31.547475 0 57.276768-25.729293 57.276768-57.276768v-6.335354c0-31.547475-25.6-57.276768-57.276768-57.276767z" fill="#F06292" p-id="5741"></path><path d="M663.014141 550.141414V588.282828h-89.082828c-10.60202 0-19.135354-8.533333-19.135353-19.135353 0-10.60202 8.533333-19.135354 19.135353-19.135354h89.082828z m0 0M663.014141 639.353535V677.494949h-89.082828c-10.60202 0-19.135354-8.533333-19.135353-19.135353 0-10.60202 8.533333-19.135354 19.135353-19.135354h89.082828z m0 0M663.014141 734.771717v38.141414h-89.082828c-10.60202 0-19.135354-8.533333-19.135353-19.135353s8.533333-19.135354 19.135353-19.135354h89.082828z m0 0" fill="#046EFF" p-id="5742"></path></svg>