<?xml version="1.0" standalone="no"?><!DOCTYPE svg PUBLIC "-//W3C//DTD SVG 1.1//EN" "http://www.w3.org/Graphics/SVG/1.1/DTD/svg11.dtd"><svg t="1547609120052" class="icon" style="" viewBox="0 0 1024 1024" version="1.1" xmlns="http://www.w3.org/2000/svg" p-id="19910" xmlns:xlink="http://www.w3.org/1999/xlink" width="200" height="200"><defs><style type="text/css">@font-face { font-family: uc-nexus-iconfont; src: url("chrome-extension://pogijhnlcfmcppgimcaccdkmbedjkmhi/res/font_9qmmi8b8jsxxbt9.woff") format("woff"), url("chrome-extension://pogijhnlcfmcppgimcaccdkmbedjkmhi/res/font_9qmmi8b8jsxxbt9.ttf") format("truetype"); }
</style></defs><path d="M958.794417 747.982596c0 34.434254-24.849968 62.294788-65.958224 61.544705-20.6319-0.101307-19.025309 0.400113-37.901215 0-32.92283-0.701988-30.769794-20.727067-41.508369-61.544705-26.402323-100.587929-138.044006-232.249575-163.489538-247.461021-67.165726-40.108486 18.067494-13.456477 18.067494-142.511761 0-33.125445-7.525394-74.739215-21.078061-102.748129-10.543124-21.935592-19.276019-42.167379 21.078061-40.911782 80.266092 2.563382 145.368832 64.357773 145.368832 143.659911 0 49.752124-25.552979 93.568049-64.452941 119.369691 7.584746 1.760087 15.312754 3.563152 23.898293 5.823636C879.534236 514.221598 958.794417 641.421628 958.794417 747.982596L958.794417 747.982596 958.794417 747.982596 958.794417 747.982596zM746.011196 818.413692c-0.249687 32.923854-14.456247 65.751516-70.371744 65.704444-125.896338-0.149403-478.973816 0.451278-539.910677 0-68.316945-0.506537-70.524217-34.131355-70.524217-65.704444 0-152.148235 103.804181-288.426015 243.097644-327.679018-61.287855-32.731472-92.009554-93.717452-92.009554-164.29795 0-102.94972 84.882226-186.726775 189.290157-186.726775 104.306624 0 189.18885 83.776032 189.18885 186.726775 0 70.580498-33.683147 131.565455-94.972025 164.29795C639.247614 529.986653 747.515457 667.669432 746.011196 818.413692L746.011196 818.413692 746.011196 818.413692 746.011196 818.413692zM746.011196 818.413692" p-id="19911" fill="#ffffff"></path></svg>