<?xml version="1.0" standalone="no"?><!DOCTYPE svg PUBLIC "-//W3C//DTD SVG 1.1//EN" "http://www.w3.org/Graphics/SVG/1.1/DTD/svg11.dtd"><svg t="1547816355425" class="icon" style="" viewBox="0 0 1512 1024" version="1.1" xmlns="http://www.w3.org/2000/svg" p-id="4071" xmlns:xlink="http://www.w3.org/1999/xlink" width="295.3125" height="200"><defs><style type="text/css">@font-face { font-family: uc-nexus-iconfont; src: url("chrome-extension://pogijhnlcfmcppgimcaccdkmbedjkmhi/res/font_9qmmi8b8jsxxbt9.woff") format("woff"), url("chrome-extension://pogijhnlcfmcppgimcaccdkmbedjkmhi/res/font_9qmmi8b8jsxxbt9.ttf") format("truetype"); }
</style></defs><path d="M460.548138 0C276.328883 0 118.971188 126.650738 69.082221 303.190443 26.86156 330.052003 0 379.952214 0 441.354884c0 88.26423 53.72312 161.191848 141.998595 161.191848a34.39494 34.39494 0 0 0 34.54111-34.54111V318.549543c0-15.3591-11.513703-30.706957-26.86156-34.54111C203.412509 157.357695 322.383696 69.127196 460.548138 69.127196s257.135629 88.26423 310.869993 214.914968c-15.347857 3.834153-26.86156 15.347857-26.86156 34.541111v249.422347a34.39494 34.39494 0 0 0 34.54111 34.54111c7.67955 0 15.347857 0 23.027407-3.845397-11.513703 65.214336-38.375264 115.137034-69.082221 149.678145-19.193254 23.027407-34.54111 38.375264-49.888967 46.099789a52.8461 52.8461 0 0 0-15.347856 11.513704c-3.834153 0-3.834153 0-3.834154 3.834153h-65.214336c-11.513703-38.386507-53.734364-65.214336-103.623331-65.214336-57.568517 0-107.457484 38.375264-107.457484 88.26423s46.099789 88.275474 107.457484 88.275475c49.888967 0 88.275474-26.86156 103.623331-65.214336h69.037246c11.513703 0 15.347857-3.834153 23.027407-7.668307s15.3591-7.67955 23.027406-15.3591c19.193254-11.513703 38.375264-30.695713 61.402671-53.734364 38.375264-46.099789 72.927618-111.314125 80.595924-199.567112 42.220661-26.86156 65.214336-76.761771 65.214336-134.330288 0-61.40267-26.86156-111.314125-69.082221-138.164441C802.125088 126.650738 644.767393 0 460.548138 0z m0 0" p-id="4072" fill="#707070"></path></svg>