<?xml version="1.0" standalone="no"?><!DOCTYPE svg PUBLIC "-//W3C//DTD SVG 1.1//EN" "http://www.w3.org/Graphics/SVG/1.1/DTD/svg11.dtd"><svg t="1547606642599" class="icon" style="" viewBox="0 0 1024 1024" version="1.1" xmlns="http://www.w3.org/2000/svg" p-id="16134" xmlns:xlink="http://www.w3.org/1999/xlink" width="200" height="200"><defs><style type="text/css">@font-face { font-family: uc-nexus-iconfont; src: url("chrome-extension://pogijhnlcfmcppgimcaccdkmbedjkmhi/res/font_9qmmi8b8jsxxbt9.woff") format("woff"), url("chrome-extension://pogijhnlcfmcppgimcaccdkmbedjkmhi/res/font_9qmmi8b8jsxxbt9.ttf") format("truetype"); }
</style></defs><path d="M507.904 60.416q93.184-1.024 175.104 33.792t143.872 94.72 97.792 141.312 36.864 174.592q1.024 88.064-30.208 165.888t-87.04 137.728-131.072 98.816-162.304 48.128q-22.528 3.072-48.128 5.12t-56.832 3.072-69.632 0-86.528-6.144q-106.496-10.24-158.208-26.624t-41.472-18.432q54.272-9.216 93.184-29.696 20.48-11.264 16.896-32.256t-19.968-39.424Q128 753.664 95.744 677.376T61.44 513.024Q60.416 419.84 95.232 337.92t95.232-143.36T332.8 97.28t175.104-36.864z m199.68 450.56q0 26.624 18.432 45.568t45.056 18.944 45.568-18.944 18.944-45.568-18.944-45.056-45.568-18.432-45.056 18.432-18.432 45.056z m-257.024 0q0 26.624 19.456 46.08t46.08 19.456q27.648 0 46.592-19.456t18.944-46.08q0-27.648-18.944-46.592t-46.592-18.944q-26.624 0-46.08 18.944t-19.456 46.592z m-253.952-1.024q0 26.624 18.944 46.08t45.568 19.456q27.648 0 46.592-19.456t18.944-46.08-18.944-45.568-46.592-18.944q-26.624 0-45.568 18.944t-18.944 45.568z" fill="#ffffff" p-id="16135"></path></svg>