<?xml version="1.0" standalone="no"?><!DOCTYPE svg PUBLIC "-//W3C//DTD SVG 1.1//EN" "http://www.w3.org/Graphics/SVG/1.1/DTD/svg11.dtd"><svg t="1547816381236" class="icon" style="" viewBox="0 0 1024 1024" version="1.1" xmlns="http://www.w3.org/2000/svg" p-id="5389" xmlns:xlink="http://www.w3.org/1999/xlink" width="200" height="200"><defs><style type="text/css">@font-face { font-family: uc-nexus-iconfont; src: url("chrome-extension://pogijhnlcfmcppgimcaccdkmbedjkmhi/res/font_9qmmi8b8jsxxbt9.woff") format("woff"), url("chrome-extension://pogijhnlcfmcppgimcaccdkmbedjkmhi/res/font_9qmmi8b8jsxxbt9.ttf") format("truetype"); }
</style></defs><path d="M952.786 352.8c0-0.515-0.172-0.86-0.172-1.375a27.232 27.232 0 0 0-1.548-5.333l-75.17-186.807c-13.073-38.703-50.228-62.441-93.92-62.613H255.441c-44.208 0-78.61 23.566-90.996 60.72L83.771 347.986c-0.344 1.204-0.86 2.752-1.204 4.472-5.849 18.061-8.773 36.467-8.773 55.044 0 65.194 35.779 124.71 93.232 155.33 23.566 12.556 51.432 18.92 82.738 18.92 52.465-0.171 101.145-23.221 134.344-62.784 33.026 39.219 81.19 62.097 133.654 62.44 51.949-0.343 100.113-23.393 132.967-62.612 33.2 39.563 81.88 62.44 134.687 62.44 31.995-0.171 60.205-6.88 84.115-19.953 56.593-30.962 91.684-90.135 91.684-154.64 0.172-18.406-2.924-36.984-8.429-53.841zM839.085 505.378c-14.45 7.913-32.51 12.041-53.669 12.041-39.047 0-74.482-19.781-95.295-53.324-1.549-3.096-3.957-8.429-8.601-13.417-5.333-5.849-14.793-12.901-30.619-12.901-12.729 0-24.254 5.16-30.79 13.245-4.3 4.816-6.709 9.633-8.429 13.245-20.47 33.199-55.732 53.152-93.92 53.324-38.703-0.172-73.966-20.125-94.607-53.496-1.376-2.924-3.785-7.913-7.569-12.04-14.965-17.89-48.68-17.03-61.753-1.377-4.816 5.332-7.397 10.665-8.945 14.277-20.641 33.199-56.248 52.98-94.951 53.153-20.642 0-38.36-3.957-52.637-11.525-36.639-19.438-59.345-57.453-59.345-98.909 0-12.213 2.064-24.598 6.193-36.639 0.344-0.86 0.516-1.892 0.688-2.752l79.47-187.84c1.549-4.816 6.537-19.437 31.307-19.437H782.32c10.149 0.688 27.694 2.408 33.887 20.642l74.31 185.26c0.344 1.375 0.688 2.58 1.032 3.611 4.128 12.041 6.193 24.254 6.193 36.467-0.344 40.94-22.706 78.61-58.657 98.392zM862.995 607.898c-17.718 0-31.995 14.277-31.995 31.994v174.595c0 9.977-8.084 18.061-18.061 18.061l-602.05 0.344c-9.977 0-18.061-8.084-18.061-17.89l-0.172-171.497c0-17.718-14.45-31.995-31.995-31.995-17.717 0-31.994 14.45-31.994 31.995l0.172 171.498c0 45.068 36.81 81.879 82.05 81.879l602.222-0.344c45.067-0.172 81.878-36.811 81.878-82.051V639.892c0-17.545-14.277-31.994-31.994-31.994z" p-id="5390" fill="#707070"></path><path d="M768.043 383.935H255.957c-17.717 0-31.995-14.277-31.995-31.994 0-17.718 14.278-31.995 31.995-31.995h511.914c17.717 0 31.995 14.277 31.995 31.995 0.172 17.717-14.278 31.994-31.823 31.994z" p-id="5391" fill="#707070"></path></svg>