<?xml version="1.0" standalone="no"?><!DOCTYPE svg PUBLIC "-//W3C//DTD SVG 1.1//EN" "http://www.w3.org/Graphics/SVG/1.1/DTD/svg11.dtd"><svg t="1547814346142" class="icon" style="" viewBox="0 0 1024 1024" version="1.1" xmlns="http://www.w3.org/2000/svg" p-id="2983" xmlns:xlink="http://www.w3.org/1999/xlink" width="200" height="200"><defs><style type="text/css">@font-face { font-family: uc-nexus-iconfont; src: url("chrome-extension://pogijhnlcfmcppgimcaccdkmbedjkmhi/res/font_9qmmi8b8jsxxbt9.woff") format("woff"), url("chrome-extension://pogijhnlcfmcppgimcaccdkmbedjkmhi/res/font_9qmmi8b8jsxxbt9.ttf") format("truetype"); }
</style></defs><path d="M870.304 496.976H701c0.024 0.368 0.088 0.728 0.112 1.096 1.72 32.088-8.592 56.408-23.192 78.64-29.328 44.576-155.52 150.576-182.864 150.576-26.784 0-154.12-106.384-183.24-150.576-14.576-22.128-24.92-46.544-23.208-78.64 0.016-0.368 0.088-0.728 0.112-1.096H119.4a16.16 16.16 0 0 1-10.936-4.288c0.552 0.656 1.008 1.352 1.64 1.968 5.56 5.464 14.296 6.392 21.896 6.392v285.296c0 12.768 0.032 26.816 4.416 38.056 4.376 11.256 10.08 21.136 17.096 29.656a75.76 75.76 0 0 0 25.44 20.088 71.04 71.04 0 0 0 31.584 7.296h565.968c22.816 0 42.416-9.128 58.792-27.384 16.384-18.248 22.416-42.176 22.416-67.712V501.048c5.248 0 12.104 0.6 16.192-1.84 2.616-1.552 4.824-3.688 6.832-6.104a16.128 16.128 0 0 1-10.432 3.872zM103.68 484.712c0.08 0.216 0.12 0.456 0.208 0.672-0.064-0.224-0.152-0.44-0.208-0.672zM857.712 310.848h-90.72c8.784-7.904 42.72-29.048 49.44-38.776a122.4 122.4 0 0 0 15.36-30.096c8.2-28.584 3.232-55.048-14.904-79.368a16.36 16.36 0 0 0-4.376-4.552c-11.704-10.336-24.432-18.248-38.168-23.728-13.736-5.496-27.048-8.68-39.92-9.576-12.888-0.896-26.344 0.008-40.384 2.744-14.04 2.72-26.904 6.36-38.608 10.944a316.888 316.888 0 0 0-35.96 16.872c-12.28 6.672-22.52 12.752-30.72 18.248a351.76 351.76 0 0 0-23.704 17.336c-6.44 4.856-10.384 11.104-11.848 18.704-1.464 7.616 0 14.752 4.384 21.432s10.384 10.784 18 12.32c7.624 1.536 14.64 0.168 21.064-4.112l1.768-1.84h0.872c9.936-7.896 20.608-15.192 32.032-21.888s25.904-13.84 43.44-21.432c17.544-7.592 35.096-11.24 52.656-10.944 17.552 0.288 33.056 5.912 46.504 16.864 5.248 7.904 6.424 16.112 3.504 24.64-2.912 10.336-9.648 20.216-20.176 29.664-10.536 9.44-19.896 15.68-28.088 18.704-37.44 14.592-68.144 22.816-92.128 24.648-0.576 0-1.752 0.296-3.504 0.904h-78.992c-1.752-3.04-3.216-4.864-4.376-5.488-14.048-14-27.2-26.768-39.488-38.328l-41.672-39.232c-15.496-14.6-25.296-23.408-29.392-26.456-52.056-36.488-100.464-57.464-145.224-62.928-44.752-5.472-82.04 5.168-111.856 31.928l-4.384 4.56c-8.776 12.16-14.48 24.944-17.096 38.328-2.624 13.392-1.888 27.072 2.192 41.04a122.4 122.4 0 0 0 15.36 30.096c6.72 9.736 35.368 30.872 44.16 38.776H132c-15.208 0-30.24 13.168-30.24 31.696v131.12c0 3.704 0.624 7.072 1.68 10.2a16.272 16.272 0 0 1 15.96-19.448h176.472c15.544-40.528 53.992-70.064 99.088-70.064 58.48 0 99.896 62.4 99.896 62.4s43.912-62.4 99.872-62.4c45.112 0 83.552 29.536 99.104 70.064h176.472c9 0 16.28 7.28 16.28 16.28 0 0.944-0.128 1.856-0.28 2.76 1.048-3.088 1.632-6.336 1.64-9.784V342.56c0-1.488-7.408-31.712-30.232-31.712z m-496.248-12.328c-1.752-0.6-2.928-0.896-3.504-0.896-6.44-0.608-12-1.216-16.672-1.848-4.68-0.616-10.68-1.832-18-3.648a360.024 360.024 0 0 1-25.016-7.304c-9.352-3.048-20.48-7.312-33.36-12.776-7.592-2.432-16.664-8.36-27.208-17.776-10.536-9.424-17.264-19.304-20.184-29.664-2.92-8.52-1.752-16.736 3.504-24.64l0.04 0.032c13.464-10.336 29.112-16.112 46.952-17.336 17.84-1.232 35.976 1.816 54.416 9.136 18.432 7.32 34.376 14.768 47.816 22.36a455.744 455.744 0 0 1 39.48 25.08c5.264 3.664 26.608 23.416 64.048 59.288H361.464z" fill="#d4237a" p-id="2984"></path></svg>