<?xml version="1.0" standalone="no"?><!DOCTYPE svg PUBLIC "-//W3C//DTD SVG 1.1//EN" "http://www.w3.org/Graphics/SVG/1.1/DTD/svg11.dtd"><svg t="1547521918800" class="icon" style="" viewBox="0 0 1024 1024" version="1.1" xmlns="http://www.w3.org/2000/svg" p-id="2004" xmlns:xlink="http://www.w3.org/1999/xlink" width="200" height="200"><defs><style type="text/css">@font-face { font-family: uc-nexus-iconfont; src: url("chrome-extension://pogijhnlcfmcppgimcaccdkmbedjkmhi/res/font_9qmmi8b8jsxxbt9.woff") format("woff"), url("chrome-extension://pogijhnlcfmcppgimcaccdkmbedjkmhi/res/font_9qmmi8b8jsxxbt9.ttf") format("truetype"); }
</style></defs><path d="M402.11814405 402.15703683A122.73592317 122.73592317 0 0 0 368.31058602 512c7.31184458-33.18527337 24.50245792-65.61213733 51.28014409-92.40926989C446.38786267 392.78387437 478.81472663 375.60298423 512 368.29113963c-38.60109442-7.27295181-80.02191616 3.99623421-109.88185595 33.8658972z" fill="#bfbfbf" p-id="2005"></path><path d="M693.33763503 629.78681559l-46.22408136-46.22408133a44.82394089 44.82394089 0 0 0-35.24659124-12.96102238c43.47241642-62.87991879 37.19123077-149.79558205-18.79494093-205.79147697-63.02576677-63.04521317-165.23601982-63.04521317-228.281233 0-63.02576677 63.04521317-63.02576677 165.26518943 0 228.31040256 55.98617172 55.99589492 142.83377258 62.22846457 205.75258419 18.75604816-0.97231975 12.64015686 3.36422636 25.64979524 12.96102238 35.24659126l46.22408134 46.23380454c17.50175567 17.46286287 46.09767975 17.46286287 63.56054263 0 17.55037163-17.46286287 17.55037163-46.06851017 0.04861599-63.57026584zM574.32569655 574.32569655c-52.67056134 52.67056134-138.02078977 52.67056134-190.67190471 0-52.67056134-52.67056134-52.67056134-138.04023618 0-190.71079752 52.65111494-52.67056134 138.00134338-52.67056134 190.67190471 0 52.66083815 52.63166854 52.66083815 138.04023618 0 190.71079752z" fill="#bfbfbf" p-id="2006"></path></svg>