<?xml version="1.0" standalone="no"?><!DOCTYPE svg PUBLIC "-//W3C//DTD SVG 1.1//EN" "http://www.w3.org/Graphics/SVG/1.1/DTD/svg11.dtd"><svg t="1547472012986" class="icon" style="" viewBox="0 0 1024 1024" version="1.1" xmlns="http://www.w3.org/2000/svg" p-id="4157" xmlns:xlink="http://www.w3.org/1999/xlink" width="200" height="200"><defs><style type="text/css">@font-face { font-family: uc-nexus-iconfont; src: url("chrome-extension://pogijhnlcfmcppgimcaccdkmbedjkmhi/res/font_9qmmi8b8jsxxbt9.woff") format("woff"), url("chrome-extension://pogijhnlcfmcppgimcaccdkmbedjkmhi/res/font_9qmmi8b8jsxxbt9.ttf") format("truetype"); }
</style></defs><path d="M704 649.600001C733.19584 614.453631 755.044838 575.194582 768.57207 531.97999 779.087686 498.386433 784.574477 462.402549 784.574477 424.102156 784.574477 225.025984 623.390412 63.667366 424.529304 63.667366 225.702689 63.667366 64.480433 225.025984 64.480433 424.102156 64.480433 623.14133 225.702689 784.539409 424.529304 784.539409 512.02356 784.539409 587.197878 755.947523 649.599976 704.000025L878.203494 932.409455C893.33415 947.527269 918.125242 947.215896 932.601805 932.69134L932.601805 932.69134C947.514509 917.729207 947.275341 893.252589 932.249568 878.203516L704 649.600001ZM115.199997 422.399435C115.199997 253.006227 252.987407 115.200019 422.400584 115.200019 591.77617 115.200019 729.6 253.006227 729.6 422.399435 729.6 591.794991 591.77617 729.600022 422.400584 729.600022 252.988582 729.600022 115.199997 591.794991 115.199997 422.399435L115.199997 422.399435Z" p-id="4158" fill="#2c2c2c"></path></svg>