<?xml version="1.0" standalone="no"?><!DOCTYPE svg PUBLIC "-//W3C//DTD SVG 1.1//EN" "http://www.w3.org/Graphics/SVG/1.1/DTD/svg11.dtd"><svg t="1547630032601" class="icon" style="" viewBox="0 0 1024 1024" version="1.1" xmlns="http://www.w3.org/2000/svg" p-id="7148" xmlns:xlink="http://www.w3.org/1999/xlink" width="200" height="200"><defs><style type="text/css">@font-face { font-family: uc-nexus-iconfont; src: url("chrome-extension://pogijhnlcfmcppgimcaccdkmbedjkmhi/res/font_9qmmi8b8jsxxbt9.woff") format("woff"), url("chrome-extension://pogijhnlcfmcppgimcaccdkmbedjkmhi/res/font_9qmmi8b8jsxxbt9.ttf") format("truetype"); }
</style></defs><path d="M428.1 885.2c0.8 0.2 1.6 0.3 2.5 0.5-4.2-2.3-8.5-4.6-12.8-6.6 2.8 2.9 6.3 5.2 10.3 6.1z" fill="#FFA9D2" p-id="7149"></path><path d="M719.5 734.8c-3.5-26.6-9.1-53-17.4-78.5-25.1-77.4 2.5-101.8 5.2-168.3 2.1-51.1-48.4-81.7-80.3-95.9-9.8-4.3-20.3-6.5-31-6.5H426.7c-10.7 0-21.3 2.2-31 6.5-32 14.2-82.5 44.8-80.3 95.9 2.8 66.5 30.4 91 5.2 168.3-8.3 25.6-13.9 51.9-17.4 78.5-12.7 95.7-21.5 169.9 96.2 175.2 71.5 3.2 100.5 3.9 112 3.9 11.4 0.1 40.5-0.6 112-3.9 117.6-5.3 108.8-79.5 96.1-175.2zM644.4 129.2c-20-8.9-53.1-18.8-83.3-18.6H450.3c-7.5 0-13.6 6.1-13.6 13.6v16.3c0 7.5 6.1 13.6 13.6 13.6h110.8v-8.8c33.9 1.1 76.3 15.4 76.3 15.4 4.4 0.7 8.6-2 9.9-6.3l4.2-13.9c1.6-5.1-2.2-9.1-7.1-11.3z" fill="#FFA9D2" p-id="7150"></path><path d="M638.7 174.6c-1.1 0-2.2-0.1-3.4-0.3l-2.3-0.6c-0.4-0.1-30-10-58.1-13.6v7.7H450.3c-15.1 0-27.4-12.3-27.4-27.4v-16.3c0-15.1 12.3-27.4 27.4-27.4h110.8c31.3 0 67 10.1 88.9 19.8 12.2 5.4 18.1 16.6 14.7 27.9l-4.2 13.9c-2.9 9.7-11.9 16.3-21.8 16.3z m-4.5-24.1z m-86.8-19.4l14.2 0.5c28 0.9 60.6 10.1 74.1 14.2l1.4-4.8c-18.6-8-48.5-17-75.8-16.6H450.4l0.1 16.2 96.9-0.1v-9.4z m91.6 10.3c0.2 0.3 0.4 0.6 0.6 0.7l4.8-13-5.4 12.3z" fill="#161616" p-id="7151"></path><path d="M559.8 216.3h-96.9c-0.7 0-1.3-0.6-1.3-1.3v-60.9h99.5V215c0 0.7-0.6 1.3-1.3 1.3z" fill="#84C9EB" p-id="7152"></path><path d="M538 230.1h-53.4c-20.3 0-36.8-16.5-36.8-36.8v-52.9h127v52.9c0 20.2-16.5 36.8-36.8 36.8z m-62.7-62.3v25.4c0 5.2 4.2 9.3 9.3 9.3H538c5.2 0 9.3-4.2 9.3-9.3v-25.4h-72z" fill="#161616" p-id="7153"></path><path d="M568.5 281.6H454.1c-1 0-1.9-0.9-1.9-1.9v-61.5c0-1 0.9-1.9 1.9-1.9h114.4c1 0 1.9 0.9 1.9 1.9v61.5c0 1.1-0.8 1.9-1.9 1.9z" fill="#FFA9D2" p-id="7154"></path><path d="M537.8 295.4h-52.9c-25.6 0-46.4-20.8-46.4-46.4s20.8-46.4 46.4-46.4h52.9c25.6 0 46.4 20.8 46.4 46.4s-20.8 46.4-46.4 46.4z m-52.9-65.3c-10.4 0-18.9 8.5-18.9 18.9 0 10.4 8.5 18.9 18.9 18.9h52.9c10.4 0 18.9-8.5 18.9-18.9 0-10.4-8.5-18.9-18.9-18.9h-52.9z" fill="#161616" p-id="7155"></path><path d="M597.4 287.8l-26.6-9.2H451.9l-26.6 9.2c-5.4 0.4-9.6 4.7-9.6 9.9v77.9c0 5.5 4.7 9.9 10.4 9.9h170.4c5.7 0 10.4-4.5 10.4-9.9v-77.9c0.1-5.3-4.2-9.5-9.5-9.9z" fill="#84C9EB" p-id="7156"></path><path d="M596.5 399.2H426.1c-13.3 0-24.2-10.6-24.2-23.7v-77.9c0-11.6 8.7-21.4 20.2-23.3l29.8-9.5 123.3 0.8 25.3 8.8c11.5 1.9 20.2 11.7 20.2 23.3v77.9c0 13-10.8 23.6-24.2 23.6z m-167.1-27.5h163.8l-0.4-71-24.4-8.5H454.2l-24.8 8.6v70.9z" fill="#161616" p-id="7157"></path><path d="M719.8 734.8c-3.4-26.6-8.7-53-16.7-78.5-24-77.4 2.3-101.8 5-168.3 2-51.1-46.2-81.7-76.7-95.9-9.3-4.3-19.4-6.5-29.6-6.5h-82.1c10.2 0 20.3 2.2 29.6 6.5 30.5 14.2 78.8 44.8 76.7 95.9-2.7 66.5-29 91-5 168.3 7.9 25.6 13.3 51.9 16.7 78.5 12.1 95.7 20.6 169.9-91.9 175.2-28.5 1.4-49.8 2.3-65.9 2.9 22.5 0.8 34.7 1.1 41 1 10.9 0.1 38.7-0.6 107-3.9 112.5-5.3 104-79.5 91.9-175.2z" fill="#FF8FC2" p-id="7158"></path><path d="M375.9 758.2c-0.9-4.6-1.4-11.6-1.4-21.2l0.7-75.2c0.9-0.9 2.7-1.4 5.5-1.4 5.9 0 9.1 0.9 9.6 2.7V696c-0.5 10-0.7 18.6-0.7 25.6v18.1c0 6.4 0.7 10.5 2.1 12.3 0 0.5 0.9 0.7 2.7 0.7 2.7 0 4.6-0.2 5.5-0.7 0.9 0 2.7-0.4 5.5-1.4 2.7 3.7 3.4 8.4 2.1 14.4-5.5 1.8-11.4 2.7-17.8 2.7-4.1 0-6.6-0.2-7.5-0.7-3.8-0.8-5.8-3.8-6.3-8.8z m43.1 6.9c-4.6 0-6.8-0.7-6.8-2.1l1.4-17.8c0.4-15.5 0.4-25.1 0-28.7-4.1 0-7.3 0.2-9.6 0.7-3.7 0.9-6.2 0.9-7.5 0-1.8-2.7-2.3-7.3-1.4-13.7 4.6-0.9 9.5-1.5 14.7-1.7 5.2-0.2 11-0.1 17.4 0.3 0.9 0.9 1.4 4.3 1.4 10.3v22.2c0 5.7-0.2 9.9-0.7 12.6l-1.4 16.4c0 1-2.5 1.5-7.5 1.5zM444.3 757.5c-0.9-4.6-1.4-10.9-1.4-19.1l-0.7-33.5c0.9-0.9 3.2-1.4 6.8-1.4 5.9 0 9.1 0.9 9.6 2.7v12.3c-0.5 2.7-0.7 5.8-0.7 9.2V739c0 6.4 0.7 10.5 2.1 12.3 0 0.5 0.9 0.7 2.7 0.7 1.8 0 4.6-0.4 8.2-1.4l6.8-2.1c2.7 3.2 3.4 8.2 2.1 15-4.6 0.9-8.5 1.7-12 2.4s-6.7 1-9.9 1c-4.1 0-6.6-0.2-7.5-0.7-3.6-0.7-5.6-3.6-6.1-8.7z m47.2 6.2c-4.6 0-6.8-0.7-6.8-2.1v-17.8c0.4-14.1 0.4-23 0-26.7-3.2 0-5.9 0.2-8.2 0.7-2.3 0.5-5.7 0.7-10.3 0.7-1.8-3.2-2.5-7.7-2.1-13.7 10-2.7 21.9-3.6 35.6-2.7 0.9 0.9 1.1 4.6 0.7 10.9v21.5c0 5.2-0.2 9-0.7 11.3l0.7 3.4 8.2-0.7c0.9 0.9 1.6 3.4 2.1 7.5 0.9 5 0.7 7.5-0.7 7.5l-13.7 0.7c-0.5 0-0.7-0.2-0.7-0.7h-4.1zM526.4 758.2c-0.9-4.6-1.4-11.6-1.4-21.2l0.7-75.2c0.9-0.9 2.7-1.4 5.5-1.4 5.9 0 9.1 0.9 9.6 2.7V696c-0.5 10-0.7 18.6-0.7 25.6v18.1c0 6.4 0.7 10.5 2.1 12.3 0 0.5 0.9 0.7 2.7 0.7 2.7 0 4.6-0.2 5.5-0.7 0.9 0 2.7-0.4 5.5-1.4 2.7 3.7 3.4 8.4 2.1 14.4-5.5 1.8-11.4 2.7-17.8 2.7-4.1 0-6.6-0.2-7.5-0.7-3.8-0.8-5.9-3.8-6.3-8.8z m43.1 6.9c-4.6 0-6.8-0.7-6.8-2.1l1.4-17.8c0.4-15.5 0.4-25.1 0-28.7-4.1 0-7.3 0.2-9.6 0.7-3.7 0.9-6.2 0.9-7.5 0-1.8-2.7-2.3-7.3-1.4-13.7 4.6-0.9 9.5-1.5 14.7-1.7 5.2-0.2 11-0.1 17.4 0.3 0.9 0.9 1.4 4.3 1.4 10.3v22.2c0 5.7-0.2 9.9-0.7 12.6l-1.4 16.4c0 1-2.5 1.5-7.5 1.5zM594.1 748c-0.5-2.3-0.8-4.7-1-7.2-0.2-2.5-0.3-5.6-0.3-9.2l0.7-26.7c0.4-0.4 2.7-0.7 6.8-0.7 5.9 0 8.9 0.9 8.9 2.7v4.4c0 1.6-0.2 3.3-0.7 5.1-0.5 2.3-0.7 7.8-0.7 16.4 0 4.1 0.7 7.1 2.1 8.9 0 0.5 0.9 0.7 2.7 0.7 3.6 0 6.2-0.2 7.5-0.7l6.8-2.1c2.7 3.7 3.4 8.9 2.1 15.7-9.1 1.4-16.4 2.1-21.9 2.1-4.1 0-6.6-0.2-7.5-0.7-3.3-0.3-5.1-3.3-5.5-8.7z m46.5 42.3c-0.9 0.4-3.4 0.7-7.5 0.7-3.7 0.4-8.4 0.8-14.4 1-5.9 0.2-13 0.1-21.2-0.3-1.4-6.8-0.7-11.9 2.1-15 3.2 0.9 7.5 1.1 13 0.7 3.2 0 6-0.1 8.5-0.3 2.5-0.2 4.9-0.6 7.2-1 1.8 0 2.7-0.2 2.7-0.7 1.4-1.8 2.1-7.5 2.1-17.1v-12.6c0-4.7-0.2-10.4-0.7-16.8l-1.4-22.6c0.4-1.8 3.6-2.7 9.6-2.7 3.6 0 5.9 0.5 6.8 1.4l0.7 45.8c0 16-0.5 26.2-1.4 30.8-0.4 4.9-2.5 7.8-6.1 8.7z" fill="" p-id="7159"></path><path d="M463 281.6h27.5v102H463z" fill="#161616" p-id="7160"></path><path d="M531.7 281.6h27.5v102h-27.5z" fill="#161616" p-id="7161"></path><path d="M512.9 927.6h-3.2c-16.5 0-53.8-1.3-110.9-3.9-44.8-2-75.7-13.9-94.4-36.2-30.5-36.4-22.8-93.8-14.8-154.5 3.8-28.7 9.8-55.9 18-81 15.3-47.1 9.9-71.9 3-103.3-3.7-16.9-7.9-36-8.9-60.2-1.9-44.1 29.6-82.9 88.5-109.1 11.5-5.1 23.8-7.7 36.6-7.7H596c12.8 0 25.1 2.6 36.6 7.7 58.9 26.2 90.3 64.9 88.5 109.1-1 24.2-5.2 43.3-8.9 60.2-6.9 31.4-12.3 56.2 3 103.3 8.1 25.1 14.2 52.3 18 81 8.1 60.8 15.7 118.1-14.8 154.5-18.7 22.4-49.6 34.2-94.4 36.2-57.1 2.6-94.5 3.9-111.1 3.9z m-1.7-27.4c10.8 0 38.5-0.6 111.4-3.9 36.7-1.7 61.1-10.3 74.6-26.4 22.7-27.1 15.9-78.7 8.6-133.3-3.6-27-9.3-52.6-16.9-76.1-17.6-54.1-10.8-85-3.7-117.6 3.6-16.6 7.4-33.7 8.3-55.5 1.8-43.3-44.5-70.5-72.2-82.8-7.9-3.5-16.5-5.3-25.4-5.3H426.7c-8.9 0-17.5 1.8-25.4 5.3-27.7 12.3-74 39.5-72.2 82.8 0.9 21.8 4.7 38.9 8.3 55.5 7.1 32.7 13.9 63.5-3.7 117.6-7.6 23.5-13.3 49.1-16.9 76.1-7.2 54.6-14.1 106.2 8.6 133.3 13.5 16.1 37.9 24.7 74.6 26.4 73 3.3 101.2 4 111.2 3.9z" fill="#161616" p-id="7162"></path><path d="M685.1 743.4c-4.2 0-7.9-3.1-8.5-7.5-3.6-27.4-9.4-53.3-17.1-77-3.6-11.1-6.3-21.4-8.1-31.5-0.8-4.7 2.3-9.1 6.9-10 4.6-0.8 9.1 2.2 10 6.9 1.6 9.1 4.2 19 7.5 29.2 8 24.7 14 51.7 17.8 80.1 0.6 4.7-2.7 9-7.4 9.6-0.3 0.2-0.7 0.2-1.1 0.2z" fill="#FFFFFF" p-id="7163"></path></svg>