<?xml version="1.0" standalone="no"?><!DOCTYPE svg PUBLIC "-//W3C//DTD SVG 1.1//EN" "http://www.w3.org/Graphics/SVG/1.1/DTD/svg11.dtd"><svg t="1547609510338" class="icon" style="" viewBox="0 0 1024 1024" version="1.1" xmlns="http://www.w3.org/2000/svg" p-id="20719" xmlns:xlink="http://www.w3.org/1999/xlink" width="200" height="200"><defs><style type="text/css">@font-face { font-family: uc-nexus-iconfont; src: url("chrome-extension://pogijhnlcfmcppgimcaccdkmbedjkmhi/res/font_9qmmi8b8jsxxbt9.woff") format("woff"), url("chrome-extension://pogijhnlcfmcppgimcaccdkmbedjkmhi/res/font_9qmmi8b8jsxxbt9.ttf") format("truetype"); }
</style></defs><path d="M512 917.333a308.459 308.459 0 0 1-86.059-9.152c-59.349-17.301-177.642-4.373-272.576 14.486 0 0-8.192 1.344-8.704 1.344a42.283 42.283 0 0 1-41.408-52.523c20.246-91.733 28.054-200.747 12.331-274.581A405.333 405.333 0 1 1 512 917.333zM339.008 640h213.333a32 32 0 1 0 0-64H339.008a32 32 0 0 0 0 64z m341.333-234.667H339.008a32 32 0 0 0 0 64h341.333a32 32 0 1 0 0-64z" fill="#ffffff" p-id="20720"></path></svg>