<?xml version="1.0" standalone="no"?><!DOCTYPE svg PUBLIC "-//W3C//DTD SVG 1.1//EN" "http://www.w3.org/Graphics/SVG/1.1/DTD/svg11.dtd"><svg t="1547629809211" class="icon" style="" viewBox="0 0 1024 1024" version="1.1" xmlns="http://www.w3.org/2000/svg" p-id="4885" xmlns:xlink="http://www.w3.org/1999/xlink" width="200" height="200"><defs><style type="text/css">@font-face { font-family: uc-nexus-iconfont; src: url("chrome-extension://pogijhnlcfmcppgimcaccdkmbedjkmhi/res/font_9qmmi8b8jsxxbt9.woff") format("woff"), url("chrome-extension://pogijhnlcfmcppgimcaccdkmbedjkmhi/res/font_9qmmi8b8jsxxbt9.ttf") format("truetype"); }
</style></defs><path d="M806.5 196s42.5-16 47 25.1c5 45.4-95.3 167.4-205.2 247.5-56.3 41-73.4 51.5-96.9 71.8-35.2 30.5-59.5 48.6-118.8 131.4-60.2 84.1-128.5 233.4-208.4 244.4s-68.9-87.7 20.4-188 200-176.6 245.4-206.4 121.7-94.1 139.4-128.5c31.4-60.6 79.9-195.7 177.1-197.3z" fill="#FFDEE3" p-id="4886"></path><path d="M213 926.9c-15.8 0-35.6-4.5-46.1-24.2-20.4-38.3 7.8-111.1 70.2-181.2 85.4-95.9 191.7-171.5 247.5-208.1 23.1-15.1 53.3-38.7 78.9-61.6 29.4-26.3 49.7-48.7 57.1-63.1 4.3-8.3 9-18.2 14-28.8 32.4-68.3 81.3-171.3 170.1-174 6.2-2 25.6-7.1 41.1 2.5 6.9 4.3 15.6 13.2 17.6 31.4 3.6 33.4-37.1 88.4-61.8 118.2-40.9 49.5-94.7 100-147.5 138.5-18.7 13.6-33.1 23.9-44.7 32.2-23.3 16.6-36.1 25.8-51.5 39.1-2.9 2.5-5.7 4.9-8.5 7.3-30.7 26.4-55 47.3-108.7 122.3-14.9 20.7-30.1 45.4-46.3 71.5-24.6 39.6-50 80.6-77.3 113.5-32.2 38.7-62.1 59.5-91.5 63.5-3.7 0.7-8 1-12.6 1z m611.1-724c-6 0-11.7 1.5-14.1 2.4-1.1 0.4-2.2 0.6-3.4 0.6-77.4 1.2-123.5 98.3-154 162.6-5.1 10.7-9.9 20.8-14.3 29.4-18.7 36.2-95.8 101.4-142.8 132.2-54.9 36-159.6 110.4-243.5 204.6-28.8 32.3-50.2 65.4-62.1 95.8-10.4 26.7-12.4 49.5-5.4 62.7 6 11.2 18.9 15.6 38.3 12.9 55.3-7.6 108-92.6 154.5-167.7 16.4-26.4 31.8-51.3 47.1-72.6 55.1-77 80.2-98.5 112-125.8 2.8-2.4 5.6-4.8 8.4-7.3 16.1-13.9 29.2-23.3 53-40.3 11.6-8.3 26-18.5 44.6-32.1 51.5-37.5 103.9-86.8 143.9-135.1 44.7-54 58.9-88.8 57.3-103.3-0.9-8.3-3.6-13.7-8.2-16.6-3.3-1.7-7.3-2.4-11.3-2.4z m-17.6-6.9z" fill="#543630" p-id="4887"></path><path d="M745.6 137.8s52.3 36.3 64.2 70.5C824 249 687 404 650 401c-20.7-1.7-71.1-21.1-86.6-35.1-2.2-2-10-8.6-10.6-10.4-4.6-14 143.2-238.5 192.8-217.7z" fill="#FFFFFF" p-id="4888"></path><path d="M651.1 411c-0.6 0-1.2 0-1.8-0.1-22.6-1.8-75.2-22-92.5-37.6-0.3-0.3-0.8-0.7-1.4-1.2-8.1-7.1-10.8-9.9-12-13.4-1.5-4.4-1.6-10 11.9-34.1 8.2-14.6 20-33.2 33-52.2 15.3-22.4 55.2-78.4 94-114.3 28.8-26.7 50.7-36.3 67.1-29.5 0.6 0.3 1.3 0.6 1.8 1 2.2 1.6 55.2 38.6 68 75.4 8.5 24.4-20 68.6-45.4 101.4-20.2 26.1-44.3 52.2-66.1 71.6-24.9 22.2-43.5 33-56.6 33z m-87.5-58.4c1.8 1.7 4 3.7 5 4.5 0.6 0.6 1.2 1 1.6 1.4 13.9 12.6 62 31 80.7 32.5 4.1 0.3 18-5.2 43.6-28 20.9-18.6 44.1-43.7 63.6-68.9 14.8-19.1 26.6-37.1 34-51.9 10.4-20.8 9-28.7 8.3-30.7-4.3-12.4-16-27.6-33.9-44-11.6-10.6-22.3-18.5-25.6-20.9-3.8-1-9.7 0.6-17 4.6-24.2 13.3-61 52.3-100.9 106.8-33.9 46.4-54.9 83.1-59.4 94.6z m-0.8 2.7z m-1.4-5z" fill="#543630" p-id="4889"></path><path d="M562.5 371.1c-2.9 0-5.6-0.5-8.2-1.4-5.2-1.9-7.9-7.6-6.1-12.8 1.9-5.2 7.6-7.9 12.8-6.1 1.7 0.6 5.8 0 12.2-3.6 22.3-12.4 58.6-52.3 99.6-109.3 35-48.6 60.7-92.6 62.8-100.9 0.4-5.2 4.7-9.3 10-9.3 5.5 0 10 4.5 10 10 0 2.9 0 8.3-18.2 38.8-11.3 18.9-26.1 41.5-41.7 63.6-23.7 33.9-69 94.4-104.3 119.3-11.1 7.8-20.6 11.7-28.9 11.7z m173.1-233.3z" fill="#543630" p-id="4890"></path><path d="M794 265c-3.3 0-6.6-1.6-8.5-4.7-7.5-11.8-48.4-43.8-72.4-61.2-4.5-3.2-5.5-9.5-2.2-14 3.2-4.5 9.5-5.5 14-2.2 6.7 4.8 65.7 47.8 77.6 66.7 3 4.7 1.6 10.8-3.1 13.8-1.7 1.1-3.6 1.6-5.4 1.6zM764 313c-3.5 0-7-1.9-8.8-5.2-2.9-5.3-26.7-24.6-72.3-54.6l-0.9-0.6c-0.1-0.1-0.2-0.1-0.3-0.2l-22.6-16.3c-4.5-3.2-5.5-9.5-2.3-14s9.5-5.5 14-2.3l23.1 16.6c46.7 30.8 73.2 51.5 78.8 61.7 2.7 4.8 0.9 10.9-3.9 13.6-1.5 0.9-3.2 1.3-4.8 1.3zM729 347c-1.6 0-3.3-0.4-4.8-1.3-14.2-7.9-78.7-48.6-81.5-50.3-0.6-0.4-1.1-0.8-1.6-1.2l-23-22c-4-3.8-4.1-10.1-0.3-14.1s10.1-4.1 14.1-0.3l22.3 21.3c7.8 4.9 66.8 42 79.7 49.2 4.8 2.7 6.6 8.8 3.9 13.6-1.9 3.2-5.3 5.1-8.8 5.1z" fill="#543630" p-id="4891"></path><path d="M692 386c-1 0-2.1-0.2-3.2-0.5-27.9-9.3-78.3-42.7-80.4-44.2-4.6-3.1-5.8-9.3-2.8-13.9 3.1-4.6 9.3-5.8 13.9-2.8 0.5 0.3 50.2 33.4 75.6 41.8 5.2 1.7 8.1 7.4 6.3 12.6-1.3 4.4-5.2 7-9.4 7z" fill="#543630" p-id="4892"></path><path d="M479.3 292.7s54.4 2.8 70.5-54.7c18.8-72.1 72.1-136.3 118.4-130.7 47.6 5.7 61.7 58.5 46.1 86.2S649.8 223.8 629 255s-5.6 48-36 66.7c-31.1 19.2-82.5 4-113.7-29z" fill="#FF6687" p-id="4893"></path><path d="M560.5 340.2c-8.6 0-17.7-1.2-26.9-3.7-23-6.2-44.9-19.3-61.5-36.8-2.8-3-3.5-7.3-1.8-11.1 1.7-3.7 5.5-6 9.6-5.8 2 0.1 46.7 1.3 60.4-47.3 9.6-36.6 28.2-72.5 51-98.5 25.1-28.6 52.9-42.6 78.2-39.6 23.5 2.8 42.2 15.9 52.8 36.8 10.6 21 11 46.2 0.8 64.3-9.3 16.5-27.2 25-44.5 33.3-15.8 7.5-32.2 15.4-41.2 28.8-7.7 11.6-9.8 20.7-11.8 29.6-3 13.3-6.1 27.1-27.3 40.2-10.7 6.4-23.7 9.8-37.8 9.8z m-58.2-40.6c28.2 20.3 64 26.9 85.4 13.6 14.1-8.7 15.6-15.4 18.3-27.5 2.2-9.6 4.9-21.6 14.6-36.3 12-18.1 31.8-27.5 49.2-35.8 15.2-7.2 29.5-14.1 35.7-25 6.8-12 6.3-30.7-1.2-45.4-4.3-8.5-14.9-23.3-37.4-26-18.3-2.2-40.5 9.8-60.8 32.9-20.9 23.7-37.9 56.7-46.7 90.4v0.2c-9.4 33.5-30.8 48.7-47.1 55.4-3.4 1.5-6.8 2.6-10 3.5z" fill="#543630" p-id="4894"></path></svg>