<?xml version="1.0" standalone="no"?><!DOCTYPE svg PUBLIC "-//W3C//DTD SVG 1.1//EN" "http://www.w3.org/Graphics/SVG/1.1/DTD/svg11.dtd"><svg t="1547812836682" class="icon" style="" viewBox="0 0 1024 1024" version="1.1" xmlns="http://www.w3.org/2000/svg" p-id="1992" xmlns:xlink="http://www.w3.org/1999/xlink" width="200" height="200"><defs><style type="text/css">@font-face { font-family: uc-nexus-iconfont; src: url("chrome-extension://pogijhnlcfmcppgimcaccdkmbedjkmhi/res/font_9qmmi8b8jsxxbt9.woff") format("woff"), url("chrome-extension://pogijhnlcfmcppgimcaccdkmbedjkmhi/res/font_9qmmi8b8jsxxbt9.ttf") format("truetype"); }
</style></defs><path d="M1024 512c0 281.6-230.4 512-512 512S0 793.6 0 512 230.4 0 512 0s512 230.4 512 512z m-953.6 0c0 243.2 198.4 441.6 441.6 441.6 243.2 0 441.6-198.4 441.6-441.6 0-243.2-198.4-441.6-441.6-441.6C268.8 70.4 70.4 268.8 70.4 512z m576-198.4L448 512l198.4 198.4c12.8 12.8 12.8 32 0 51.2-12.8 12.8-32 12.8-51.2 0l-217.6-224c-6.4-6.4-12.8-19.2-12.8-25.6 0-6.4 6.4-19.2 12.8-25.6l217.6-217.6c19.2-12.8 38.4-12.8 51.2 0 12.8 12.8 12.8 32 0 44.8z" fill="#515151" p-id="1993"></path></svg>