<?xml version="1.0" standalone="no"?><!DOCTYPE svg PUBLIC "-//W3C//DTD SVG 1.1//EN" "http://www.w3.org/Graphics/SVG/1.1/DTD/svg11.dtd"><svg t="1547629742918" class="icon" style="" viewBox="0 0 1024 1024" version="1.1" xmlns="http://www.w3.org/2000/svg" p-id="3778" xmlns:xlink="http://www.w3.org/1999/xlink" width="200" height="200"><defs><style type="text/css">@font-face { font-family: uc-nexus-iconfont; src: url("chrome-extension://pogijhnlcfmcppgimcaccdkmbedjkmhi/res/font_9qmmi8b8jsxxbt9.woff") format("woff"), url("chrome-extension://pogijhnlcfmcppgimcaccdkmbedjkmhi/res/font_9qmmi8b8jsxxbt9.ttf") format("truetype"); }
</style></defs><path d="M972.6208 732.1088c-31.7184-27.904-68.608-49.8944-105.216-70.656-38.8608-22.1184-89.7536-61.0048-136.6272-53.76a30.464 30.464 0 0 0-9.984 2.4576 32.2816 32.2816 0 0 0-6.8096 3.328c-141.8496 81.0752-230.3488-91.5968-294.4512-187.8272-45.7728-68.7104-93.1584-136.2944-143.744-201.5232-31.6928-40.8832-72.1664-101.5808-123.6992-119.552-36.48-12.672-74.496 32.768-94.464 57.2416C4.5056 227.0208-7.2192 307.6608 3.7376 389.0432c7.0656 52.5568 31.3344 103.0656 44.3392 154.496 28.928 114.3552 37.376 233.3952 39.3728 350.9248a32.4352 32.4352 0 0 0 32.1024 32.1024l101.1712 0.1024c17.4848 0.0256 28.9536-14.592 28.9536-32.0768v-334.08c31.7952 17.7408 50.944 45.952 68.0192 66.7648 55.1936 67.4048 80.128 152.9856 139.2896 217.4208 80 87.1168 187.648 85.76 295.296 81.792 74.3936-2.7392 221.312 0 263.7312-77.4144 24.2688-44.288-11.5456-88.9088-43.392-116.9664z" p-id="3779" fill="#d4237a"></path></svg>